<svg id="visual" viewBox="0 0 900 300" width="900" height="300" xmlns="http://www.w3.org/2000/svg" xmlns:xlink="http://www.w3.org/1999/xlink" version="1.1"><rect x="0" y="0" width="900" height="300" fill="#202731"></rect><path d="M0 106L21.5 108C43 110 86 114 128.8 114.2C171.7 114.3 214.3 110.7 257.2 105.7C300 100.7 343 94.3 385.8 96.2C428.7 98 471.3 108 514.2 111.5C557 115 600 112 642.8 107.2C685.7 102.3 728.3 95.7 771.2 92.2C814 88.7 857 88.3 878.5 88.2L900 88L900 0L878.5 0C857 0 814 0 771.2 0C728.3 0 685.7 0 642.8 0C600 0 557 0 514.2 0C471.3 0 428.7 0 385.8 0C343 0 300 0 257.2 0C214.3 0 171.7 0 128.8 0C86 0 43 0 21.5 0L0 0Z" fill="#ff6f61"></path><path d="M0 95L21.5 92.7C43 90.3 86 85.7 128.8 80.8C171.7 76 214.3 71 257.2 73C300 75 343 84 385.8 84C428.7 84 471.3 75 514.2 76.5C557 78 600 90 642.8 89.3C685.7 88.7 728.3 75.3 771.2 71.3C814 67.3 857 72.7 878.5 75.3L900 78L900 0L878.5 0C857 0 814 0 771.2 0C728.3 0 685.7 0 642.8 0C600 0 557 0 514.2 0C471.3 0 428.7 0 385.8 0C343 0 300 0 257.2 0C214.3 0 171.7 0 128.8 0C86 0 43 0 21.5 0L0 0Z" fill="#f76455"></path><path d="M0 77L21.5 72.8C43 68.7 86 60.3 128.8 56C171.7 51.7 214.3 51.3 257.2 50.5C300 49.7 343 48.3 385.8 50C428.7 51.7 471.3 56.3 514.2 59.8C557 63.3 600 65.7 642.8 64.3C685.7 63 728.3 58 771.2 58.2C814 58.3 857 63.7 878.5 66.3L900 69L900 0L878.5 0C857 0 814 0 771.2 0C728.3 0 685.7 0 642.8 0C600 0 557 0 514.2 0C471.3 0 428.7 0 385.8 0C343 0 300 0 257.2 0C214.3 0 171.7 0 128.8 0C86 0 43 0 21.5 0L0 0Z" fill="#ee5849"></path><path d="M0 42L21.5 40.5C43 39 86 36 128.8 37.5C171.7 39 214.3 45 257.2 46.2C300 47.3 343 43.7 385.8 44.7C428.7 45.7 471.3 51.3 514.2 53C557 54.7 600 52.3 642.8 48.5C685.7 44.7 728.3 39.3 771.2 36.8C814 34.3 857 34.7 878.5 34.8L900 35L900 0L878.5 0C857 0 814 0 771.2 0C728.3 0 685.7 0 642.8 0C600 0 557 0 514.2 0C471.3 0 428.7 0 385.8 0C343 0 300 0 257.2 0C214.3 0 171.7 0 128.8 0C86 0 43 0 21.5 0L0 0Z" fill="#e64c3d"></path><path d="M0 16L21.5 18C43 20 86 24 128.8 27C171.7 30 214.3 32 257.2 29.5C300 27 343 20 385.8 17C428.7 14 471.3 15 514.2 18.8C557 22.7 600 29.3 642.8 28.7C685.7 28 728.3 20 771.2 18.3C814 16.7 857 21.3 878.5 23.7L900 26L900 0L878.5 0C857 0 814 0 771.2 0C728.3 0 685.7 0 642.8 0C600 0 557 0 514.2 0C471.3 0 428.7 0 385.8 0C343 0 300 0 257.2 0C214.3 0 171.7 0 128.8 0C86 0 43 0 21.5 0L0 0Z" fill="#dd3f31"></path></svg>